<?xml version="1.0" encoding="UTF-8"?>
<svg width="1200" height="420" viewBox="0 0 1200 420" xmlns="http://www.w3.org/2000/svg" role="img" aria-labelledby="title desc">
  <title id="title">Skill proficiency diagram</title>
  <desc id="desc">Bars for Networking 4, IT Help Desk 4, Cloud Foundations 3, Java for Ops 3, Workflow 4 out of 5.</desc>
  <rect width="1200" height="420" fill="#ffffff"/>
  <g font-family="Inter, Roboto, Arial, Helvetica, sans-serif">
    
      <text x="56" y="28" font-size="22" font-weight="700" fill="#202124">Skills — Proficiency</text>
      <text x="266" y="28" font-size="14" fill="#5f6368">Scale: 1–5 stars</text>
    
    <text x="56" y="56" font-size="18" font-weight="600" fill="#202124">Networking</text><text x="56" y="76" font-size="14" fill="#5f6368">TCP/IP, VLANs, routing/switching, DNS/DHCP, firewalling, monitoring</text><rect x="316" y="40" width="868" height="12" rx="6" fill="#E8F0FE" stroke="#E0E3E7" /><rect x="316" y="40" width="694" height="12" rx="6" fill="#1A73E8" /><text x="1196" y="52" font-size="16" fill="#202124" dominant-baseline="middle">★★★★☆</text><text x="56" y="120" font-size="18" font-weight="600" fill="#202124">IT Help Desk</text><text x="56" y="140" font-size="14" fill="#5f6368">ticket lifecycle & SLA, endpoint support, onboarding/offboarding, KB</text><rect x="316" y="104" width="868" height="12" rx="6" fill="#E8F0FE" stroke="#E0E3E7" /><rect x="316" y="104" width="694" height="12" rx="6" fill="#1A73E8" /><text x="1196" y="116" font-size="16" fill="#202124" dominant-baseline="middle">★★★★☆</text><text x="56" y="184" font-size="18" font-weight="600" fill="#202124">Cloud (Foundations)</text><text x="56" y="204" font-size="14" fill="#5f6368">IAM, VPC/VNet, logging/monitoring, cost basics</text><rect x="316" y="168" width="868" height="12" rx="6" fill="#E8F0FE" stroke="#E0E3E7" /><rect x="316" y="168" width="520" height="12" rx="6" fill="#1A73E8" /><text x="1196" y="180" font-size="16" fill="#202124" dominant-baseline="middle">★★★☆☆</text><text x="56" y="248" font-size="18" font-weight="600" fill="#202124">Java for Ops</text><text x="56" y="268" font-size="14" fill="#5f6368">CLI utilities, HTTP/DNS checks, report generation</text><rect x="316" y="232" width="868" height="12" rx="6" fill="#E8F0FE" stroke="#E0E3E7" /><rect x="316" y="232" width="520" height="12" rx="6" fill="#1A73E8" /><text x="1196" y="244" font-size="16" fill="#202124" dominant-baseline="middle">★★★☆☆</text><text x="56" y="312" font-size="18" font-weight="600" fill="#202124">Workflow</text><text x="56" y="332" font-size="14" fill="#5f6368">Git, lightweight CI (lint/test), clear READMEs & runbooks</text><rect x="316" y="296" width="868" height="12" rx="6" fill="#E8F0FE" stroke="#E0E3E7" /><rect x="316" y="296" width="694" height="12" rx="6" fill="#1A73E8" /><text x="1196" y="308" font-size="16" fill="#202124" dominant-baseline="middle">★★★★☆</text>
  </g>
</svg>